<svg xmlns="http://www.w3.org/2000/svg" xmlns:xlink="http://www.w3.org/1999/xlink" xml:space="preserve" version="1.1" style="shape-rendering:geometricPrecision;text-rendering:geometricPrecision;image-rendering:optimizeQuality;" viewBox="0 0 847 1058.75" x="0px" y="0px" fill-rule="evenodd" clip-rule="evenodd"><defs><style type="text/css">
   
    .fil0 {fill:black}
   
  </style></defs><g><path class="fil0" d="M400 797c-71,-113 -265,-370 -265,-496 0,-159 129,-288 288,-288 159,0 288,129 288,288 0,126 -193,383 -264,496l-24 37 -23 -37zm23 -757c144,0 261,117 261,261 0,115 -188,367 -261,481 -72,-114 -260,-366 -260,-481 0,-144 117,-261 260,-261z"/><path class="fil0" d="M423 149c81,0 147,66 147,147 0,81 -66,147 -147,147 -81,0 -146,-66 -146,-147 0,-81 65,-147 146,-147zm0 28c66,0 120,53 120,119 0,66 -54,119 -120,119 -66,0 -119,-53 -119,-119 0,-66 53,-119 119,-119z"/></g><text x="0" y="862" fill="#000000" font-size="5px" font-weight="bold" font-family="'Helvetica Neue', Helvetica, Arial-Unicode, Arial, Sans-serif">Created by hendra sudibyo</text><text x="0" y="867" fill="#000000" font-size="5px" font-weight="bold" font-family="'Helvetica Neue', Helvetica, Arial-Unicode, Arial, Sans-serif">from the Noun Project</text></svg>