<svg xmlns="http://www.w3.org/2000/svg" xmlns:xlink="http://www.w3.org/1999/xlink" xml:space="preserve" version="1.1" style="shape-rendering:geometricPrecision;text-rendering:geometricPrecision;image-rendering:optimizeQuality;" viewBox="0 0 847 1058.75" x="0px" y="0px" fill-rule="evenodd" clip-rule="evenodd"><defs><style type="text/css">
   
    .fil0 {fill:black}
   
  </style></defs><g><path class="fil0" d="M711 675c-36,0 -64,-29 -64,-65 0,-36 28,-65 64,-65 37,0 65,29 65,65 0,36 -28,65 -65,65z"/><path class="fil0" d="M556 597l-331 0c-14,-103 -165,-103 -179,0l-21 0c-10,0 -19,-9 -19,-19l0 -110 550 0 0 129z"/><path class="fil0" d="M135 675c-36,0 -64,-29 -64,-65 0,-36 28,-65 64,-65 37,0 65,29 65,65 0,36 -28,65 -65,65z"/><path class="fil0" d="M6 196c0,-14 10,-24 24,-24l501 0c14,0 25,11 25,24l0 246 -550 0c0,-116 0,-107 0,-246z"/><path class="fil0" d="M801 597c-14,-103 -165,-103 -179,0l-40 0c0,-122 0,-245 0,-368l129 0c4,0 15,6 19,8l111 153c0,90 0,96 0,207l-40 0zm-72 -342l-86 0c-12,0 -22,10 -22,22l0 91c0,12 10,22 22,22l183 0 -97 -135z"/></g><text x="0" y="862" fill="#000000" font-size="5px" font-weight="bold" font-family="'Helvetica Neue', Helvetica, Arial-Unicode, Arial, Sans-serif">Created by hendra sudibyo</text><text x="0" y="867" fill="#000000" font-size="5px" font-weight="bold" font-family="'Helvetica Neue', Helvetica, Arial-Unicode, Arial, Sans-serif">from the Noun Project</text></svg>